# AST/ASF file generated using VICON BodyLanguage
# -----------------------------------------------
:version 1.10
:name VICON
:units
  mass 1.0
  length 0.45
  angle deg
:documentation
   .ast/.asf automatically generated from VICON data using
   VICON BodyBuilder and BodyLanguage model FoxedUp or BRILLIANT.MOD
:root
   order TX TY TZ RX RY RZ
   axis XYZ
   position 0 0 0  
   orientation 0 0 0 
:bonedata
  begin
     id 1 
     name lhipjoint
     direction 0.710188 -0.616876 0.339259 
     length 2.5669 
     axis 0 0 0  XYZ
  end
  begin
     id 2 
     name lfemur
     direction 0.34202 -0.939693 0  
     length 7.12796  
     axis 0 0 20  XYZ
    dof rx ry rz
    limits (-160.0 20.0)
           (-70.0 70.0)
           (-60.0 70.0)
  end
  begin
     id 3 
     name ltibia
     direction 0.34202 -0.939693 0   
     length 7.58108   
     axis 0 0 20   XYZ
    dof rx
    limits (-10.0 170.0)
  end
  begin
     id 4 
     name lfoot
     direction 0.0669471 -0.183936 0.980656   
     length 2.17365   
     axis -90 7.62852e-016 20   XYZ
    dof rx rz
    limits (-45.0 90.0)
           (-70.0 20.0)
  end
  begin
     id 5 
     name ltoes
     direction 1.53508e-011 -4.21705e-011 1   
     length 1.09427   
     axis -90 7.62852e-016 20   XYZ
    dof rx
    limits (-90.0 20.0)
  end
  begin
     id 6 
     name rhipjoint
     direction -0.700191 -0.625589 0.34405   
     length 2.53115  
     axis 0 0 0  XYZ 
  end
  begin
     id 7 
     name rfemur
     direction -0.34202 -0.939693 0   
     length 7.33006   
     axis 0 0 -20   XYZ
    dof rx ry rz
    limits (-160.0 20.0)
           (-70.0 70.0)
           (-70.0 60.0)
  end
  begin
     id 8 
     name rtibia
     direction -0.34202 -0.939693 0   
     length 7.64926   
     axis 0 0 -20   XYZ
    dof rx
    limits (-10.0 170.0)
 end
 begin
     id 9 
     name rfoot
     direction -0.0688927 -0.189281 0.979503   
     length 2.20493  
     axis -90 -7.62852e-016 -20   XYZ
    dof rx rz
    limits (-45.0 90.0)
           (-20.0 70.0)
  end
  begin
     id 10 
     name rtoes
     direction -1.53567e-011 -4.21933e-011 1   
     length 1.10919   
     axis -90 -7.62852e-016 -20   XYZ
    dof rx
    limits (-90.0 20.0)
  end
  begin
     id 11 
     name lowerback
     direction -0.0167868 0.989873 -0.140959   
     length 2.14596   
     axis 0 0 0   XYZ
    dof rx ry rz
    limits (-20.0 45.0)
           (-30.0 30.0)
           (-30.0 30.0)
  end
  begin
     id 12 
     name upperback
     direction 0.0129109 0.998033 0.0613525   
     length 2.10457   
     axis 0 0 0   XYZ
    dof rx ry rz
    limits (-20.0 45.0)
           (-30.0 30.0)
           (-30.0 30.0)
  end
  begin
     id 13 
     name thorax
     direction 0.0177047 0.991119 0.131797   
     length 2.17652   
     axis 0 0 0   XYZ
    dof rx ry rz
    limits (-20.0 45.0)
           (-30.0 30.0)
           (-30.0 30.0)
  end
  begin
     id 14 
     name lowerneck
     direction -0.0336893 0.997548 0.0613464   
     length 1.8912   
     axis 0 0 0   XYZ
    dof rx ry rz
    limits (-20.0 45.0)
           (-30.0 30.0)
           (-30.0 30.0)
  end
  begin
     id 15 
     name upperneck
     direction 0.0435909 0.997179 -0.0611028   
     length 1.8829   
     axis 0 0 0   XYZ
    dof rx ry rz
    limits (-20.0 45.0)
           (-30.0 30.0)
           (-30.0 30.0)
  end
  begin
     id 16
     name head
     direction 0.0175076 0.999444 -0.0283782  
     length 1.93197  
     axis 0 0 0   XYZ
    dof rx ry rz
    limits (-20.0 45.0)
           (-30.0 30.0)
           (-30.0 30.0)
  end
  begin
     id 17 
     name lclavicle
     direction 0.919164 0.389875 0.0559876  
     length 3.60004  
     axis 0 0 0   XYZ
    dof ry rz
    limits (-20.0 10.0)
           (0.0 20.0)
  end
  begin
     id 18 
     name lhumerus
     direction 1 -4.48958e-011 6.89191e-027   
     length 5.43301   
     axis 180 -30 -90   XYZ
    dof rx ry rz
    limits (-60.0 90.0)
           (-90.0 90.0)
           (-90.0 90.0)
  end
  begin
     id 19
     name lradius
     direction 1 -4.4897e-011 3.24727e-027   
     length 3.15936   
     axis 180 -30 -90   XYZ
    dof rx
    limits (-10.0 170.0)
  end
  begin
     id 20
     name lwrist
     direction 1 -4.4897e-011 9.00228e-027   
     length 1.57968   
     axis -6.29373e-015 90 90   XYZ
    dof ry
    limits (-180.0 0.0)
 end
  begin
     id 21 
     name lhand
     direction 1 -4.48968e-011 1.80042e-026   
     length 0.712827   
     axis -1.14882e-014 90 90   XYZ
    dof rx rz
    limits (-90.0 90.0)
           (-45.0 45.0)
  end
  begin
     id 22 
     name lfingers
     direction 1 -4.49019e-011 3.60267e-026   
     length 0.574699   
     axis -2.29769e-014 90 90   XYZ
    dof rx
    limits (0.0 90.0)
  end
  begin
     id 23
     name lthumb
     direction 0.707107 -6.3498e-011 0.707107   
     length 0.825157   
     axis -90 45 5.37419e-014   XYZ
    dof rx rz
    limits (-45.0 45.0)
           (-45.0 45.0)
  end
  begin
     id 24 
     name rclavicle
     direction -0.890334 0.455305 -0.00132111   
     length 3.51494  
     axis 0 0 0   XYZ 
    dof ry rz
    limits (-10.0 20.0)
           (-20.0 0.0)
  end
  begin
     id 25 
     name rhumerus
     direction -1 -4.48967e-011 5.07175e-028  
     length 5.34194   
     axis 180 30 90   XYZ
    dof rx ry rz
    limits (-90.0 60.0)
           (-90.0 90.0)
           (-90.0 90.0)
  end
  begin
     id 26 
     name rradius
     direction -1 -4.48955e-011 3.30467e-027   
     length 3.19351   
     axis 180 30 90   XYZ
    dof rx
    limits (-10.0 170.0)
  end
  begin
     id 27 
     name rwrist
     direction -1 -4.48968e-011 9.00208e-027   
     length 1.59676   
     axis -6.29373e-015 -90 -90   XYZ
    dof ry
    limits (-180.0 0.0)
  end
  begin
     id 28
     name rhand
     direction -1 -4.49e-011 1.80099e-026   
     length 0.743862   
     axis -1.14882e-014 -90 -90   XYZ
    dof rx rz
    limits (-90.0 90.0)
           (-45.0 45.0)
  end
  begin
     id 29
     name rfingers
     direction -1 -4.49009e-011 3.6023e-026   
     length 0.599721   
     axis -2.29769e-014 -90 -90   XYZ
    dof rx
    limits (0.0 90.0)
  end
  begin
     id 30
     name rthumb
     direction -0.707107 -6.35025e-011 0.707107   
     length 0.861083   
     axis -90 -45 -5.37419e-014   XYZ
    dof rx rz
    limits (-45.0 45.0)
           (-45.0 45.0)
  end
:hierarchy
  begin
    root lhipjoint rhipjoint lowerback
    lhipjoint lfemur
    lfemur ltibia
    ltibia lfoot
    lfoot ltoes
    rhipjoint rfemur
    rfemur rtibia
    rtibia rfoot
    rfoot rtoes
    lowerback upperback
    upperback thorax
    thorax lowerneck lclavicle rclavicle
    lowerneck upperneck
    upperneck head
    lclavicle lhumerus
    lhumerus lradius
    lradius lwrist
    lwrist lhand lthumb
    lhand lfingers
    rclavicle rhumerus
    rhumerus rradius
    rradius rwrist
    rwrist rhand rthumb
    rhand rfingers
  end

#!OML:ASF H:\Martial Arts Walks\Project 1\Capture day 1\Session 1\male.ASF
:FULLY-SPECIFIED
:DEGREES
616
root -1.29152 13.8877 12.5796 7.99383 30.749 11.2985
lowerback 11.2521 3.54166 -15.0796
upperback -1.35688 2.49778 -1.66331
thorax -8.46597 1.87194 6.18337
lowerneck 2.16899 -12.2391 -13.1561
upperneck 3.98403 -16.863 9.30917
head 2.73365 -8.49782 4.28061
rclavicle -7.96909e-014 2.05245e-014
rhumerus 7.12843 10.0622 -55.9542
rradius 31.6101
rwrist 20.3458
rhand -12.2828 -12.5362
rfingers 7.12502
rthumb 13.7845 -42.0595
lclavicle -7.96909e-014 2.05245e-014
lhumerus -70.5022 -18.1273 102.348
lradius 101.919
lwrist 38.7394
lhand 9.53946 39.8506
lfingers 7.12502
lthumb 34.6894 66.4786
rfemur -62.3295 -25.7212 5.51719
rtibia 71.0129
rfoot -6.49578 11.714
rtoes 7.55444
lfemur 16.7649 2.35439 -10.6064
ltibia 27.8125
lfoot -17.243 31.8287
ltoes -26.5224
617
root -1.29245 13.8818 12.597 8.04881 30.6383 11.3593
lowerback 11.2631 3.55346 -15.1486
upperback -1.34852 2.50105 -1.68359
thorax -8.46672 1.87573 6.19814
lowerneck 2.14562 -12.247 -13.1672
upperneck 4.00873 -16.8744 9.34695
head 2.75028 -8.50266 4.28966
rclavicle -1.8987e-014 -1.4064e-014
rhumerus 7.21739 10.1068 -55.989
rradius 31.6428
rwrist 20.2591
rhand -12.113 -12.6087
rfingers 7.12502
rthumb 13.9481 -42.1208
lclavicle -1.8987e-014 -1.4064e-014
lhumerus -70.4723 -18.1504 102.399
lradius 101.949
lwrist 38.4824
lhand 9.57936 39.6902
lfingers 7.12502
lthumb 34.7273 66.3095
rfemur -62.4746 -25.7421 5.54834
rtibia 71.1895
rfoot -6.60296 11.7748
rtoes 7.74403
lfemur 17.0242 2.31631 -10.7058
ltibia 27.4315
lfoot -17.0616 31.9041
ltoes -26.5144
618
root -1.29316 13.8755 12.6142 8.09966 30.5376 11.4096
lowerback 11.2685 3.56441 -15.213
upperback -1.34118 2.50502 -1.70037
thorax -8.46547 1.87968 6.21427
lowerneck 2.12122 -12.2545 -13.1724
upperneck 4.03395 -16.8849 9.38082
head 2.76632 -8.50699 4.29679
rclavicle -3.8002e-014 3.4017e-014
rhumerus 7.28556 10.1891 -56.0015
rradius 31.7175
rwrist 20.1723
rhand -11.9403 -12.6829
rfingers 7.12502
rthumb 14.1145 -42.1835
lclavicle -3.8002e-014 3.4017e-014
lhumerus -70.4439 -18.1763 102.457
lradius 101.974
lwrist 38.2409
lhand 9.61172 39.5166
lfingers 7.12502
lthumb 34.758 66.1289
rfemur -62.6205 -25.7752 5.59061
rtibia 71.3663
rfoot -6.7122 11.8456
rtoes 7.89001
lfemur 17.2783 2.27429 -10.7902
ltibia 27.0579
lfoot -16.8685 31.9782
ltoes -26.5352
619
root -1.29398 13.8689 12.6313 8.14379 30.4518 11.4439
lowerback 11.2696 3.57329 -15.2712
upperback -1.33303 2.50852 -1.7097
thorax -8.46072 1.88305 6.2355
lowerneck 2.09379 -12.2603 -13.1753
upperneck 4.05885 -16.8926 9.41259
head 2.78206 -8.50984 4.30302
rclavicle 3.52905e-014 6.21948e-014
rhumerus 7.34193 10.2813 -55.9976
rradius 31.8274
rwrist 20.1
rhand -11.7543 -12.7502
rfingers 7.12502
rthumb 14.2938 -42.2382
lclavicle 3.52905e-014 6.21948e-014
lhumerus -70.4097 -18.2045 102.52
lradius 101.989
lwrist 38.0404
lhand 9.62551 39.3666
lfingers 7.12502
lthumb 34.7711 65.9758
rfemur -62.7634 -25.8169 5.64624
rtibia 71.5416
rfoot -6.81447 11.9227
rtoes 8.05397
lfemur 17.5197 2.23369 -10.8475
ltibia 26.6991
lfoot -16.6736 32.0416
ltoes -26.6026
620
root -1.29511 13.8617 12.6484 8.17897 30.3759 11.4596
lowerback 11.2685 3.58464 -15.3232
upperback -1.32598 2.51699 -1.71152
thorax -8.45711 1.88885 6.26059
lowerneck 2.06394 -12.2682 -13.1729
upperneck 4.0877 -16.9025 9.43681
head 2.79852 -8.51374 4.30589
rclavicle 5.24916e-015 3.80921e-014
rhumerus 7.38545 10.364 -55.9801
rradius 31.9615
rwrist 20.0508
rhand -11.572 -12.8163
rfingers 7.12502
rthumb 14.4695 -42.2918
lclavicle 5.24916e-015 3.80921e-014
lhumerus -70.3815 -18.2411 102.59
lradius 102.001
lwrist 37.892
lhand 9.62595 39.2471
lfingers 7.12502
lthumb 34.7715 65.8562
rfemur -62.9033 -25.8587 5.71747
rtibia 71.7171
rfoot -6.91592 11.9979
rtoes 8.219
lfemur 17.747 2.2084 -10.87
ltibia 26.3627
lfoot -16.495 32.0867
ltoes -26.679
621
root -1.29655 13.8541 12.6653 8.20828 30.3097 11.4629
lowerback 11.2694 3.59803 -15.3711
upperback -1.3218 2.52845 -1.70802
thorax -8.45858 1.8965 6.28843
lowerneck 2.03339 -12.2781 -13.1672
upperneck 4.12141 -16.9151 9.455
head 2.81605 -8.51898 4.30614
rclavicle 9.16584e-014 4.5472e-015
rhumerus 7.41879 10.4218 -55.9581
rradius 32.1067
rwrist 20.0351
rhand -11.4064 -12.878
rfingers 7.12502
rthumb 14.6289 -42.342
lclavicle 9.16584e-014 4.5472e-015
lhumerus -70.3638 -18.2828 102.663
lradius 102.008
lwrist 37.7973
lhand 9.62353 39.157
lfingers 7.12502
lthumb 34.7692 65.7666
rfemur -63.0411 -25.9022 5.79972
rtibia 71.8929
rfoot -7.01861 12.0671
rtoes 8.37089
lfemur 17.9551 2.20237 -10.8625
ltibia 26.0573
lfoot -16.3489 32.1093
ltoes -26.7608
622
root -1.29836 13.846 12.6822 8.23472 30.2518 11.4613
lowerback 11.2735 3.61326 -15.4201
upperback -1.32048 2.54147 -1.70169
thorax -8.46578 1.90554 6.31949
lowerneck 2.00398 -12.2885 -13.1601
upperneck 4.15625 -16.9284 9.47233
head 2.83362 -8.52457 4.30595
rclavicle -2.64446e-014 2.45996e-015
rhumerus 7.44627 10.4396 -55.9402
rradius 32.2528
rwrist 20.0489
rhand -11.2676 -12.9355
rfingers 7.12502
rthumb 14.7627 -42.3897
lclavicle -2.64446e-014 2.45996e-015
lhumerus -70.3489 -18.3271 102.737
lradius 101.998
lwrist 37.7458
lhand 9.62937 39.0777
lfingers 7.12502
lthumb 34.7747 65.686
rfemur -63.1777 -25.9484 5.88658
rtibia 72.0721
rfoot -7.12065 12.1267
rtoes 8.53642
lfemur 18.1411 2.21998 -10.8314
ltibia 25.788
lfoot -16.2396 32.1094
ltoes -26.8395
623
root -1.30039 13.8375 12.699 8.2652 30.2034 11.4564
lowerback 11.2798 3.62812 -15.4651
upperback -1.32639 2.55339 -1.69599
thorax -8.48184 1.91478 6.34751
lowerneck 1.98027 -12.2982 -13.1524
upperneck 4.19008 -16.9416 9.49281
head 2.85021 -8.53021 4.30703
rclavicle -2.39784e-015 5.11871e-015
rhumerus 7.46413 10.4214 -55.9336
rradius 32.3924
rwrist 20.0807
rhand -11.1664 -13.0007
rfingers 7.12502
rthumb 14.8602 -42.4478
lclavicle -2.39784e-015 5.11871e-015
lhumerus -70.3561 -18.3694 102.807
lradius 101.987
lwrist 37.7222
lhand 9.66439 39.011
lfingers 7.12502
lthumb 34.808 65.6117
rfemur -63.3212 -26.0053 5.98193
rtibia 72.2569
rfoot -7.22599 12.177
rtoes 8.69261
lfemur 18.2969 2.25908 -10.7803
ltibia 25.5588
lfoot -16.1681 32.0903
ltoes -26.9119
624
root -1.30253 13.8286 12.7156 8.30625 30.1636 11.46
lowerback 11.284 3.64093 -15.5158
upperback -1.33749 2.56142 -1.69356
thorax -8.50188 1.92288 6.37576
lowerneck 1.96302 -12.3076 -13.1448
upperneck 4.21788 -16.9554 9.51982
head 2.8646 -8.53619 4.31061
rclavicle -8.73193e-014 -1.49089e-014
rhumerus 7.47913 10.3776 -55.9369
rradius 32.5171
rwrist 20.11
rhand -11.1045 -13.0587
rfingers 7.12502
rthumb 14.9198 -42.5013
lclavicle -8.73193e-014 -1.49089e-014
lhumerus -70.3713 -18.4081 102.87
lradius 101.963
lwrist 37.7143
lhand 9.73384 38.9195
lfingers 7.12502
lthumb 34.8738 65.5049
rfemur -63.4743 -26.0781 6.07592
rtibia 72.4515
rfoot -7.34194 12.2197
rtoes 8.80755
lfemur 18.4211 2.31464 -10.7246
ltibia 25.3706
lfoot -16.129 32.0584
ltoes -26.9782
625
root -1.3046 13.8194 12.7324 8.35347 30.1321 11.4623
lowerback 11.2807 3.64948 -15.5629
upperback -1.35121 2.56547 -1.69186
thorax -8.5193 1.92887 6.40224
lowerneck 1.9461 -12.3174 -13.1357
upperneck 4.2381 -16.9695 9.54888
head 2.87675 -8.54224 4.31482
rclavicle -1.23259e-013 2.67365e-014
rhumerus 7.49547 10.3215 -55.9472
rradius 32.6253
rwrist 20.1128
rhand -11.0723 -13.1058
rfingers 7.12502
rthumb 14.9508 -42.5461
lclavicle -1.23259e-013 2.67365e-014
lhumerus -70.3906 -18.4414 102.922
lradius 101.93
lwrist 37.7135
lhand 9.8343 38.8308
lfingers 7.12502
lthumb 34.9692 65.394
rfemur -63.635 -26.1646 6.17689
rtibia 72.6546
rfoot -7.46171 12.2646
rtoes 8.90905
lfemur 18.5155 2.38237 -10.6576
ltibia 25.2232
lfoot -16.1214 32.0164
ltoes -27.0322
